<?xml version="1.0" encoding="UTF-8"?>
<svg id="a" data-name="Layer 20" xmlns="http://www.w3.org/2000/svg" xmlns:xlink="http://www.w3.org/1999/xlink" viewBox="0 0 70.5 64">
  <defs>
    <linearGradient id="b" x1="-22.97" y1="26.14" x2="-20.14" y2="26.14" gradientTransform="translate(46.18 -7.42) rotate(10.89)" gradientUnits="userSpaceOnUse">
      <stop offset="0" stop-color="#fff"/>
      <stop offset="1" stop-color="#231f20"/>
    </linearGradient>
    <linearGradient id="c" x1="50.59" y1="20.12" x2="53.52" y2="20.12" gradientTransform="translate(-31.9 10.85) rotate(-7.23)" xlink:href="#b"/>
  </defs>
  <path d="m20.03,13.11l-.24.3c-.11-.27-.26-.51-.46-.7l-7.71-7.16c-.71-.66-1.7-.47-2.22.42l-7.31,12.42c-.52.89-.37,2.14.33,2.79l6.56,6.1-.53.68c-1.21,1.55-1.1,4.07.23,5.45l7.24,7.49,15.14-23.11-11.04-4.68Z" fill="#04293f" stroke="#fff" stroke-miterlimit="10"/>
  <path d="m46.4,4.8L11.76,35.04c-1.52,1.33-1.9,3.96-.84,5.87h0c1.06,1.91,3.15,2.39,4.67,1.06L50.23,11.72c1.52-1.33,1.9-3.96.84-5.87h0c-1.06-1.91-3.15-2.39-4.67-1.06Z" fill="#04293f" stroke="#fff" stroke-miterlimit="10"/>
  <path d="m33.06,26.9l-19.37,16.91c-1.52,1.33-1.9,3.96-.84,5.87h0c1.06,1.91,3.15,2.39,4.67,1.06l19.37-16.91c1.52-1.33,1.9-3.96.84-5.87h0c-1.06-1.91-3.15-2.39-4.67-1.06Z" fill="#04293f" stroke="#fff" stroke-miterlimit="10"/>
  <path d="m37.3,33.21l-17.32,15.12c-1.52,1.33-1.9,3.96-.84,5.87h0c1.06,1.91,3.15,2.39,4.67,1.06l17.32-15.12c1.52-1.33,1.9-3.96.84-5.87h0c-1.06-1.91-3.15-2.39-4.67-1.06Z" fill="#04293f" stroke="#fff" stroke-miterlimit="10"/>
  <path d="m56.3,26.64l-28.53,24.91c-1.52,1.33-1.9,3.96-.84,5.87h0c1.06,1.91,3.15,2.39,4.67,1.06l28.53-24.91c1.52-1.33,1.9-3.96.84-5.87h0c-1.06-1.91-3.15-2.39-4.67-1.06Z" fill="#04293f" stroke="#fff" stroke-miterlimit="10"/>
  <path d="m53.5,28.1l-6.46-14.07c-.44-.95-.18-2.17.58-2.71l11.55-8.38c.76-.55,1.72-.22,2.16.73l6.46,14.07c.44.95.18,2.17-.58,2.71l-11.55,8.38c-.76.55-1.72.22-2.16-.73Z" fill="#04293f" stroke="#fff" stroke-miterlimit="10"/>
  <polygon points="60.99 29.17 33.51 53.16 20.65 29.88 50.66 6.83 60.99 29.17" fill="#04293f"/>
  <path d="m56.24,41.39l-5.91,5.16-2.67-4.84c-1.07-1.94-.69-4.61.85-5.96l.02-.02c1.71-1.49,4.05-.96,5.23,1.18l2.47,4.47Z" fill="#04293f" stroke="#fff" stroke-miterlimit="10"/>
  <path d="m50.33,46.54l-5.91,5.16-2.67-4.84c-1.07-1.94-.69-4.61.85-5.96l.02-.02c1.71-1.49,4.05-.96,5.23,1.18l2.47,4.47Z" fill="#04293f" stroke="#fff" stroke-miterlimit="10"/>
  <path d="m44.42,51.7l-5.91,5.16-2.16-3.91c-1.07-1.94-.69-4.61.85-5.96l.02-.02c1.71-1.49,4.05-.96,5.23,1.18l1.96,3.54Z" fill="#04293f" stroke="#fff" stroke-miterlimit="10"/>
  <path d="m38.51,56.86l-5.89,5.14-1.65-2.98c-1.07-1.94-.69-4.61.85-5.96h0c1.71-1.49,4.05-.96,5.23,1.18l1.45,2.62Z" fill="#04293f" stroke="#fff" stroke-miterlimit="10"/>
  <path d="m42.82,15.04l-4.78-10.47-.09.09h0s-18.32,8.38-18.32,8.38l3.61,11.87,12.27-8.55,2.36,5.18c.92,2.01,2.73,2.5,4.05,1.11h0c1.63-1.72,2.03-5.13.9-7.61Z" fill="#04293f" stroke="#fff" stroke-miterlimit="10"/>
  <line x1="18.52" y1="14.76" x2="21.63" y2="13.59" fill="url(#b)" stroke="#01293f" stroke-miterlimit="10" stroke-width="1.3"/>
  <path d="m23.97,22.84l-1.54,1.22c-.6.48-1.4.25-1.78-.51l-2.89-5.77c-.38-.76-.2-1.76.4-2.23l1.54-1.22c.6-.48,1.4-.25,1.78.51l2.89,5.77c.38.76.2,1.76-.4,2.23Z" fill="#00293e"/>
  <line x1="20.95" y1="25.43" x2="23.61" y2="23.1" fill="url(#c)" stroke="#01293f" stroke-miterlimit="10" stroke-width="1.3"/>
</svg>