<?xml version="1.0" encoding="UTF-8"?>
<svg xmlns="http://www.w3.org/2000/svg" viewBox="0 0 92 67">
  <g id="a" data-name="Layer 7">
    <polyline points="82.95 9.96 39 47.5 33.5 62 28 35.5 80.5 9 82.95 10.45" fill="#ebeaea"/>
    <polygon points="83.5 10 54 59.5 39.5 48 83.5 10" fill="#fff"/>
    <polygon points="45.5 54 34.5 61 39.5 49 45.5 54" fill="#fff"/>
    <polygon points="70.5 13.55 28 35.13 8.64 34.75 70.5 13.55" fill="#fff"/>
  </g>
  <g id="b" data-name="Layer 6">
    <line x1="87" y1="6.5" x2="54" y2="59.5" fill="none" stroke="#01283e" stroke-linecap="round" stroke-miterlimit="10" stroke-width="2.83"/>
    <line x1="4" y1="35.5" x2="87" y2="6.5" fill="none" stroke="#01283e" stroke-linecap="round" stroke-miterlimit="10" stroke-width="2.83"/>
    <line x1="29" y1="35.5" x2="4" y2="35.5" fill="none" stroke="#01283e" stroke-miterlimit="10" stroke-width="2.83"/>
    <line x1="40" y1="48.5" x2="54" y2="59.5" fill="none" stroke="#01283e" stroke-linecap="round" stroke-miterlimit="10" stroke-width="2.83"/>
    <line x1="33" y1="62.5" x2="28" y2="35.5" fill="none" stroke="#01283e" stroke-linecap="round" stroke-miterlimit="10" stroke-width="2.83"/>
    <line x1="47" y1="53.5" x2="33" y2="62.5" fill="none" stroke="#01283e" stroke-miterlimit="10" stroke-width="2.83"/>
    <line x1="39" y1="47.5" x2="33.5" y2="62" fill="none" stroke="#01283e" stroke-linecap="round" stroke-miterlimit="10" stroke-width="2.13"/>
    <line x1="87" y1="6.5" x2="39" y2="47.5" fill="none" stroke="#01283e" stroke-miterlimit="10" stroke-width="2.13"/>
    <line x1="28" y1="35.5" x2="87" y2="6.5" fill="none" stroke="#01283e" stroke-miterlimit="10" stroke-width="2.13"/>
  </g>
</svg>