<?xml version="1.0" encoding="UTF-8"?>
<svg xmlns="http://www.w3.org/2000/svg" viewBox="0 0 317 103">
  <g id="a" data-name="Layer 21">
    <text transform="translate(-3 92.23)" fill="#4f328e" font-family="Arial-BoldMT, Arial" font-size="113.91" font-weight="700"><tspan x="0" y="0">H</tspan></text>
    <text transform="translate(74.14 38.48)" fill="#4f328e" font-family="Arial-BoldMT, Arial" font-size="51.88" font-weight="700"><tspan x="0" y="0">ousemate</tspan></text>
    <text transform="translate(73.14 91.48)" fill="#4f328e" font-family="Arial-BoldMT, Arial" font-size="51.88" font-weight="700"><tspan x="0" y="0">HQ</tspan></text>
    <line x1="66" y1="49" x2="258" y2="49" fill="none" stroke="#4f328e" stroke-miterlimit="10" stroke-width="6"/>
  </g>
  <g id="b" data-name="Layer 22">
    <g>
      <polyline points="298.86 47.36 245.15 68.71 235.27 80.66 238.61 53.8 296.86 45.66 298.71 47.82" fill="#ebeaea"/>
      <polygon points="299.37 47.57 255.48 84.91 245.46 69.34 299.37 47.57" fill="#fff"/>
      <polygon points="249.21 76.96 236.54 80.03 245.14 70.29 249.21 76.96" fill="#fff"/>
      <polygon points="285.92 46.73 238.73 53.45 220.53 46.84 285.92 46.73" fill="#fff"/>
      <line x1="303.81" y1="45.39" x2="255.48" y2="84.91" fill="none" stroke="#01283e" stroke-linecap="round" stroke-miterlimit="10" stroke-width="2.83"/>
      <line x1="215.9" y1="46.06" x2="303.81" y2="45.39" fill="none" stroke="#01283e" stroke-linecap="round" stroke-miterlimit="10" stroke-width="2.83"/>
      <line x1="239.56" y1="54.12" x2="215.9" y2="46.06" fill="none" stroke="#01283e" stroke-miterlimit="10" stroke-width="2.83"/>
      <line x1="245.78" y1="69.98" x2="255.48" y2="84.91" fill="none" stroke="#01283e" stroke-linecap="round" stroke-miterlimit="10" stroke-width="2.83"/>
      <line x1="234.63" y1="80.97" x2="238.61" y2="53.8" fill="none" stroke="#01283e" stroke-linecap="round" stroke-miterlimit="10" stroke-width="2.83"/>
      <line x1="250.79" y1="76.97" x2="234.63" y2="80.97" fill="none" stroke="#01283e" stroke-miterlimit="10" stroke-width="2.83"/>
      <line x1="245.15" y1="68.71" x2="235.27" y2="80.66" fill="none" stroke="#01283e" stroke-linecap="round" stroke-miterlimit="10" stroke-width="2.13"/>
      <line x1="303.81" y1="45.39" x2="245.15" y2="68.71" fill="none" stroke="#01283e" stroke-miterlimit="10" stroke-width="2.13"/>
      <line x1="238.61" y1="53.8" x2="303.81" y2="45.39" fill="none" stroke="#01283e" stroke-miterlimit="10" stroke-width="2.13"/>
    </g>
  </g>
  <g id="c" data-name="Layer 23">
    <g>
      <path d="m148.48,96.87s1.85.61,4.93.77" fill="none" stroke="#4f328e" stroke-miterlimit="10" stroke-width="3"/>
      <path d="m158.94,97.38c5.18-.72,11.77-2.99,18.56-8.88,15-13,25.48-7.84,25.48-7.84,0,0,10.89,4.51,21.95,3.53" fill="none" stroke="#4f328e" stroke-dasharray="0 0 9.25 5.55" stroke-miterlimit="10" stroke-width="3"/>
      <path d="m227.68,83.82c1.63-.29,3.25-.72,4.82-1.32" fill="none" stroke="#4f328e" stroke-miterlimit="10" stroke-width="3"/>
    </g>
  </g>
</svg>