<?xml version="1.0" encoding="UTF-8"?>
<svg xmlns="http://www.w3.org/2000/svg" viewBox="0 0 400.5 847">
  <g id="a" data-name="Layer 27">
    <rect y="1" width="401" height="846" fill="#ebeaea"/>
  </g>
  <g id="b" data-name="Layer 3">
    <path d="m16.58,1.23c1.36,271.55,1.34,576.16-.08,847.7-1.37-271.55-1.33-576.16.08-847.7h0Z" fill="#fff"/>
    <path d="m42,1.01c1.38,271,1.39,575,0,845.99-1.4-271-1.38-575,0-845.99h0Z" fill="#fff"/>
    <path d="m69.37,1.35c1.41,270.89,1.44,574.76.07,845.65-1.42-270.89-1.43-574.76-.07-845.65h0Z" fill="#fff"/>
    <path d="m94.47.82c1.38,271.06,1.39,575.13,0,846.18-1.4-271.06-1.38-575.13,0-846.18h0Z" fill="#fff"/>
    <path d="m121.94,2c1.37,270.68,1.38,574.33-.03,845-1.39-270.68-1.36-574.33.03-845h0Z" fill="#fff"/>
    <path d="m147.26,2.07c1.43,270.66,1.49,574.27.14,844.93-1.44-270.66-1.48-574.27-.14-844.93h0Z" fill="#fff"/>
    <path d="m173.19,1.69c1.4,270.78,1.43,574.53.05,845.31-1.41-270.78-1.41-574.53-.05-845.31h0Z" fill="#fff"/>
    <path d="m200.73,1.29c1.36,270.91,1.36,574.8-.06,845.71-1.38-270.91-1.34-574.8.06-845.71h0Z" fill="#fff"/>
    <path d="m225.8,5.68c1.35,269.5,1.33,571.82-.1,841.32-1.36-269.5-1.31-571.82.1-841.32h0Z" fill="#fff"/>
    <path d="m253.1,4.35c1.4,269.93,1.43,572.72.05,842.65-1.41-269.93-1.41-572.72-.05-842.65h0Z" fill="#fff"/>
    <path d="m278.77,2.6c1.34,270.49,1.31,573.91-.13,844.4-1.35-270.49-1.29-573.91.13-844.4h0Z" fill="#fff"/>
    <path d="m304.17,1.57c1.4,270.82,1.44,574.62.06,845.43-1.41-270.82-1.42-574.62-.06-845.43h0Z" fill="#fff"/>
    <path d="m331.74,1.34c1.36,270.89,1.35,574.77-.07,845.66-1.37-270.89-1.34-574.77.07-845.66h0Z" fill="#fff"/>
    <path d="m359.81,1.38c1.35,270.88,1.32,574.74-.11,845.62-1.36-270.88-1.31-574.74.11-845.62h0Z" fill="#fff"/>
    <path d="m386.76,1.08c1.35,270.97,1.32,574.95-.11,845.92-1.36-270.97-1.31-574.95.11-845.92h0Z" fill="#fff"/>
  </g>
  <g id="c" data-name="Layer 3 copy">
    <polygon points="397.78 31.01 348.33 31.53 298.89 31.82 200 32.08 101.11 31.84 51.67 31.54 2.22 31.02 51.67 30.5 101.11 30.2 200 29.95 298.89 30.2 348.33 30.49 397.78 31.01" fill="#fff"/>
    <polygon points="400.13 58.13 350.38 58.69 300.64 59.02 201.15 59.36 101.67 59.2 51.92 58.94 2.18 58.46 51.92 57.9 101.66 57.56 201.15 57.23 300.64 57.4 350.38 57.65 400.13 58.13" fill="#fff"/>
    <path d="m401,85.13c-128,1.5-271.6,1.64-399.59.37,128-1.51,271.6-1.63,399.59-.37h0Z" fill="#fff"/>
    <path d="m401,110.98c-128,1.37-271.6,1.36-399.59-.05,128-1.38,271.6-1.35,399.59.05h0Z" fill="#fff"/>
    <path d="m401,136.11c-128.26,1.49-272.15,1.61-400.4.32,128.26-1.5,272.15-1.6,400.4-.32h0Z" fill="#fff"/>
    <path d="m401,162.07c-127.99,1.44-271.58,1.52-399.57.19,127.99-1.46,271.58-1.51,399.57-.19h0Z" fill="#fff"/>
    <polygon points="402.31 189.91 352.2 190.41 302.08 190.67 201.85 190.87 101.62 190.57 51.51 190.24 1.39 189.7 51.51 189.2 101.62 188.93 201.85 188.74 302.08 189.05 352.2 189.37 402.31 189.91" fill="#fff"/>
    <polygon points="399.95 214.93 350.16 215.42 300.36 215.69 200.77 215.89 101.18 215.6 51.38 215.28 1.59 214.73 51.39 214.23 101.18 213.96 200.77 213.77 300.36 214.07 350.16 214.39 399.95 214.93" fill="#fff"/>
    <polygon points="399.97 242.04 350.3 242.57 300.63 242.89 201.28 243.16 101.94 242.95 52.27 242.67 2.6 242.16 52.27 241.62 101.94 241.31 201.28 241.04 300.63 241.26 350.3 241.54 399.97 242.04" fill="#fff"/>
    <polygon points="401.2 267.92 351.49 268.4 301.77 268.67 202.33 268.86 102.89 268.55 53.18 268.23 3.46 267.68 53.18 267.19 102.9 266.92 202.33 266.73 301.77 267.04 351.49 267.37 401.2 267.92" fill="#fff"/>
    <polygon points="402.54 293.07 352.77 293.61 303 293.93 203.45 294.22 103.91 294.02 54.14 293.74 4.37 293.24 54.14 292.7 103.91 292.38 203.45 292.09 303 292.3 352.77 292.57 402.54 293.07" fill="#fff"/>
    <polygon points="402.45 320.92 352.57 321.41 302.69 321.68 202.92 321.88 103.15 321.58 53.27 321.26 3.39 320.71 53.27 320.22 103.16 319.95 202.92 319.75 302.69 320.05 352.57 320.38 402.45 320.92" fill="#fff"/>
    <polygon points="402.15 345.93 352.07 346.43 301.99 346.7 201.83 346.9 101.67 346.61 51.59 346.29 1.51 345.74 51.59 345.25 101.67 344.97 201.83 344.78 301.99 345.07 352.07 345.39 402.15 345.93" fill="#fff"/>
    <polygon points="402.35 371.03 352.36 371.55 302.37 371.85 202.39 372.11 102.41 371.88 52.42 371.59 2.43 371.08 52.42 370.55 102.41 370.25 202.39 369.99 302.37 370.23 352.36 370.51 402.35 371.03" fill="#fff"/>
    <polygon points="402.1 398.85 352.23 399.33 302.37 399.6 202.63 399.77 102.9 399.46 53.03 399.13 3.17 398.57 53.04 398.09 102.9 397.83 202.64 397.65 302.37 397.97 352.23 398.3 402.1 398.85" fill="#fff"/>
    <polygon points="401.27 424.01 351.44 424.53 301.62 424.82 201.98 425.08 102.33 424.83 52.51 424.54 2.68 424.02 52.51 423.5 102.33 423.2 201.97 422.95 301.62 423.2 351.44 423.49 401.27 424.01" fill="#fff"/>
    <polygon points="401.34 423.88 351.52 424.37 301.69 424.63 202.04 424.8 102.39 424.49 52.56 424.16 2.74 423.6 52.57 423.12 102.39 422.85 202.04 422.68 301.69 423 351.52 423.33 401.34 423.88" fill="#fff"/>
    <polygon points="401.09 451 351.17 451.52 301.25 451.81 201.4 452.06 101.56 451.81 51.64 451.51 1.72 450.99 51.64 450.47 101.56 450.18 201.41 449.93 301.25 450.18 351.17 450.48 401.09 451" fill="#fff"/>
    <polygon points="400.11 476.13 350.54 476.69 300.98 477.03 201.84 477.36 102.71 477.2 53.14 476.95 3.57 476.47 53.14 475.91 102.7 475.57 201.84 475.24 300.98 475.4 350.54 475.65 400.11 476.13" fill="#fff"/>
    <polygon points="398.69 502.1 349.37 502.64 300.06 502.96 201.44 503.26 102.82 503.07 53.51 502.8 4.2 502.3 53.51 501.76 102.82 501.43 201.44 501.14 300.06 501.33 349.37 501.6 398.69 502.1" fill="#fff"/>
    <polygon points="399.09 529.92 349.72 530.42 300.36 530.7 201.62 530.91 102.89 530.63 53.52 530.31 4.16 529.77 53.52 529.27 102.89 528.99 201.62 528.79 300.36 529.07 349.72 529.39 399.09 529.92" fill="#fff"/>
    <polygon points="398.86 554.94 349.32 555.44 299.77 555.72 200.69 555.93 101.6 555.65 52.06 555.34 2.52 554.8 52.06 554.3 101.6 554.02 200.69 553.81 299.77 554.09 349.32 554.41 398.86 554.94" fill="#fff"/>
    <polygon points="398.9 582.06 349.11 582.6 299.32 582.91 199.74 583.2 100.16 583 50.37 582.72 .58 582.22 50.37 581.68 100.16 581.36 199.74 581.08 299.32 581.29 349.11 581.56 398.9 582.06" fill="#fff"/>
    <polygon points="398.66 607.93 348.81 608.42 298.96 608.69 199.27 608.89 99.57 608.6 49.72 608.28 -.12 607.73 49.73 607.24 99.57 606.97 199.27 606.77 298.96 607.07 348.81 607.39 398.66 607.93" fill="#fff"/>
    <polygon points="399.08 633.09 349.19 633.64 299.29 633.96 199.5 634.26 99.71 634.07 49.82 633.8 -.08 633.31 49.82 632.76 99.71 632.44 199.5 632.14 299.29 632.33 349.19 632.6 399.08 633.09" fill="#fff"/>
    <polygon points="399.94 660.93 350.04 661.43 300.13 661.7 200.32 661.91 100.52 661.62 50.61 661.31 .71 660.77 50.62 660.26 100.52 659.99 200.33 659.78 300.13 660.07 350.04 660.39 399.94 660.93" fill="#fff"/>
    <path d="m401,685.94c-128.49,1.33-272.64,1.29-401.12-.15,128.49-1.35,272.64-1.28,401.12.15h0Z" fill="#fff"/>
    <polygon points="402.36 711.02 352.5 711.55 302.64 711.85 202.92 712.11 103.2 711.89 53.34 711.6 3.48 711.08 53.34 710.55 103.2 710.25 202.92 709.99 302.64 710.22 352.5 710.51 402.36 711.02" fill="#fff"/>
    <path d="m401,738.87c-127.08,1.28-269.66,1.17-396.74-.33,127.08-1.29,269.66-1.16,396.74.33h0Z" fill="#fff"/>
    <path d="m402,764.01c-127.71,1.39-270.98,1.41-398.69.02,127.71-1.4,270.98-1.39,398.69-.02h0Z" fill="#fff"/>
    <path d="m401,791c-127.93,1.38-271.46,1.39-399.39,0,127.93-1.39,271.46-1.38,399.39,0h0Z" fill="#fff"/>
    <path d="m401,816.12c-128.4,1.5-272.44,1.63-400.84.35,128.4-1.51,272.44-1.62,400.84-.35h0Z" fill="#fff"/>
    <path d="m401,842.08c-127.99,1.45-271.58,1.54-399.57.22,127.99-1.47,271.58-1.53,399.57-.22h0Z" fill="#fff"/>
    <path d="m402,7.91c-128.7,1.39-273.1,1.41-401.8.02,128.7-1.4,273.1-1.4,401.8-.02h0Z" fill="#fff"/>
  </g>
</svg>