<?xml version="1.0" encoding="UTF-8"?>
<svg id="a" data-name="Layer 12" xmlns="http://www.w3.org/2000/svg" viewBox="0 0 54.5 74">
  <path d="m5,82s0-10,2-17,8-15,13-18c0,0,10-6,19,3s12,22,12,34" fill="none" stroke="#00283d" stroke-linecap="round" stroke-linejoin="round" stroke-width="3"/>
  <circle cx="27.5" cy="25.5" r="9" fill="#fff" stroke="#00283d" stroke-linecap="round" stroke-linejoin="round" stroke-width="3"/>
  <path d="m47.5,21.5s-1,7-4,7c0,0,4,.06,4,6.03,0,0-1-5.03,4-6.03,0,0-4-1-4-7Z" fill="#fff" stroke="#00283d" stroke-linecap="round" stroke-linejoin="round" stroke-width="2"/>
  <path d="m9,3.06s-1,7-4,7c0,0,4,.06,4,6.03,0,0-1-5.03,4-6.03,0,0-4-1-4-7Z" fill="#fff" stroke="#00283d" stroke-linecap="round" stroke-linejoin="round" stroke-width="2"/>
  <path d="m6,36.06s-1,7-4,7c0,0,4,.06,4,6.03,0,0-1-5.03,4-6.03,0,0-4-1-4-7Z" fill="#fff" stroke="#00283d" stroke-linecap="round" stroke-linejoin="round" stroke-width="2"/>
</svg>