<?xml version="1.0" encoding="UTF-8"?>
<svg xmlns="http://www.w3.org/2000/svg" viewBox="0 0 1286.72 945.66">
  <defs>
    <style>
      .d {
        fill: #fff;
      }

      .e {
        fill: #ebeaea;
      }
    </style>
  </defs>
  <g id="a" data-name="Layer 27">
    <rect class="e" x="592" y="3" width="401" height="846"/>
  </g>
  <g id="b" data-name="Layer 3">
    <path class="d" d="m608.58,3.23c1.36,270.93,1.34,574.85-.08,845.77-1.37-270.93-1.33-574.85.08-845.77h0Z"/>
    <path class="d" d="m634,3.01c1.38,271,1.39,575,0,845.99-1.4-271-1.38-575,0-845.99h0Z"/>
    <path class="d" d="m661.37,3.35c1.41,270.89,1.44,574.76.07,845.65-1.42-270.89-1.43-574.76-.07-845.65h0Z"/>
    <path class="d" d="m686.47,2.82c1.38,271.06,1.39,575.13,0,846.18-1.4-271.06-1.38-575.13,0-846.18h0Z"/>
    <path class="d" d="m713.94,4c1.37,270.68,1.38,574.33-.03,845-1.39-270.68-1.36-574.33.03-845h0Z"/>
    <path class="d" d="m739.26,4.07c1.43,270.66,1.49,574.27.14,844.93-1.44-270.66-1.48-574.27-.14-844.93h0Z"/>
    <path class="d" d="m765.19,3.69c1.4,270.78,1.43,574.53.05,845.31-1.41-270.78-1.41-574.53-.05-845.31h0Z"/>
    <path class="d" d="m792.73,3.29c1.36,270.91,1.36,574.8-.06,845.71-1.38-270.91-1.34-574.8.06-845.71h0Z"/>
    <path class="d" d="m817.8,7.68c1.35,269.5,1.33,571.82-.1,841.32-1.36-269.5-1.31-571.82.1-841.32h0Z"/>
    <path class="d" d="m845.1,6.35c1.4,269.93,1.43,572.72.05,842.65-1.41-269.93-1.41-572.72-.05-842.65h0Z"/>
    <path class="d" d="m870.77,4.6c1.34,270.49,1.31,573.91-.13,844.4-1.35-270.49-1.29-573.91.13-844.4h0Z"/>
    <path class="d" d="m896.17,3.57c1.4,270.82,1.44,574.62.06,845.43-1.41-270.82-1.42-574.62-.06-845.43h0Z"/>
    <path class="d" d="m923.74,3.34c1.36,270.89,1.35,574.77-.07,845.66-1.37-270.89-1.34-574.77.07-845.66h0Z"/>
    <path class="d" d="m951.81,3.38c1.35,270.88,1.32,574.74-.11,845.62-1.36-270.88-1.31-574.74.11-845.62h0Z"/>
    <path class="d" d="m978.76,3.08c1.35,270.97,1.32,574.95-.11,845.92-1.36-270.97-1.31-574.95.11-845.92h0Z"/>
  </g>
  <g id="c" data-name="Layer 3 copy">
    <polygon class="d" points="989.78 33.01 940.33 33.53 890.89 33.82 792 34.08 693.11 33.84 643.67 33.54 594.22 33.02 643.67 32.5 693.11 32.2 792 31.95 890.89 32.2 940.33 32.49 989.78 33.01"/>
    <polygon class="d" points="992.13 60.13 942.38 60.69 892.64 61.02 793.15 61.36 693.67 61.2 643.92 60.94 594.18 60.46 643.92 59.9 693.66 59.56 793.15 59.23 892.64 59.4 942.38 59.65 992.13 60.13"/>
    <path class="d" d="m993,87.13c-128,1.5-271.6,1.64-399.59.37,128-1.51,271.6-1.63,399.59-.37h0Z"/>
    <path class="d" d="m993,112.98c-128,1.37-271.6,1.36-399.59-.05,128-1.38,271.6-1.35,399.59.05h0Z"/>
    <path class="d" d="m993,138.11c-128.26,1.49-272.15,1.61-400.4.32,128.26-1.5,272.15-1.6,400.4-.32h0Z"/>
    <path class="d" d="m993,164.07c-127.99,1.44-271.58,1.52-399.57.19,127.99-1.46,271.58-1.51,399.57-.19h0Z"/>
    <polygon class="d" points="994.31 191.91 944.2 192.41 894.08 192.67 793.85 192.87 693.62 192.57 643.51 192.24 593.39 191.7 643.51 191.2 693.62 190.93 793.85 190.74 894.08 191.05 944.2 191.37 994.31 191.91"/>
    <polygon class="d" points="991.95 216.93 942.16 217.42 892.36 217.69 792.77 217.89 693.18 217.6 643.38 217.28 593.59 216.73 643.39 216.23 693.18 215.96 792.77 215.77 892.36 216.07 942.16 216.39 991.95 216.93"/>
    <polygon class="d" points="991.97 244.04 942.3 244.57 892.63 244.89 793.28 245.16 693.94 244.95 644.27 244.67 594.6 244.16 644.27 243.62 693.94 243.31 793.28 243.04 892.63 243.26 942.3 243.54 991.97 244.04"/>
    <polygon class="d" points="993.2 269.92 943.49 270.4 893.77 270.67 794.33 270.86 694.89 270.55 645.18 270.23 595.46 269.68 645.18 269.19 694.9 268.92 794.33 268.73 893.77 269.04 943.49 269.37 993.2 269.92"/>
    <polygon class="d" points="994.54 295.07 944.77 295.61 895 295.93 795.45 296.22 695.91 296.02 646.14 295.74 596.37 295.24 646.14 294.7 695.91 294.38 795.45 294.09 895 294.3 944.77 294.57 994.54 295.07"/>
    <polygon class="d" points="994.45 322.92 944.57 323.41 894.69 323.68 794.92 323.88 695.15 323.58 645.27 323.26 595.39 322.71 645.27 322.22 695.16 321.95 794.92 321.75 894.69 322.05 944.57 322.37 994.45 322.92"/>
    <polygon class="d" points="994.15 347.93 944.07 348.43 893.99 348.7 793.83 348.9 693.67 348.61 643.59 348.29 593.51 347.74 643.59 347.25 693.67 346.97 793.83 346.78 893.99 347.07 944.07 347.39 994.15 347.93"/>
    <polygon class="d" points="994.35 373.03 944.36 373.55 894.37 373.85 794.39 374.11 694.41 373.88 644.42 373.59 594.43 373.08 644.42 372.55 694.41 372.25 794.39 371.99 894.37 372.23 944.36 372.51 994.35 373.03"/>
    <polygon class="d" points="994.1 400.85 944.23 401.33 894.37 401.6 794.63 401.77 694.9 401.46 645.03 401.13 595.17 400.57 645.04 400.09 694.9 399.83 794.64 399.65 894.37 399.97 944.23 400.3 994.1 400.85"/>
    <polygon class="d" points="993.27 426.01 943.44 426.53 893.62 426.82 793.98 427.08 694.33 426.83 644.51 426.54 594.68 426.02 644.51 425.5 694.33 425.2 793.97 424.95 893.62 425.2 943.44 425.49 993.27 426.01"/>
    <polygon class="d" points="993.34 425.88 943.52 426.37 893.69 426.63 794.04 426.8 694.39 426.49 644.56 426.16 594.74 425.6 644.57 425.12 694.39 424.85 794.04 424.68 893.69 425 943.52 425.33 993.34 425.88"/>
    <polygon class="d" points="993.09 453 943.17 453.52 893.25 453.81 793.4 454.06 693.56 453.81 643.64 453.51 593.72 452.99 643.64 452.47 693.56 452.18 793.41 451.93 893.25 452.18 943.17 452.48 993.09 453"/>
    <polygon class="d" points="992.11 478.13 942.54 478.69 892.98 479.03 793.84 479.36 694.71 479.2 645.14 478.95 595.57 478.47 645.14 477.91 694.7 477.57 793.84 477.24 892.98 477.4 942.54 477.65 992.11 478.13"/>
    <polygon class="d" points="990.69 504.1 941.37 504.64 892.06 504.96 793.44 505.26 694.82 505.07 645.51 504.8 596.2 504.3 645.51 503.76 694.82 503.43 793.44 503.14 892.06 503.33 941.37 503.6 990.69 504.1"/>
    <polygon class="d" points="991.09 531.92 941.72 532.42 892.36 532.7 793.62 532.91 694.89 532.63 645.52 532.31 596.16 531.77 645.52 531.27 694.89 530.99 793.62 530.79 892.36 531.07 941.72 531.39 991.09 531.92"/>
    <polygon class="d" points="990.86 556.94 941.32 557.44 891.77 557.72 792.69 557.93 693.6 557.65 644.06 557.34 594.52 556.8 644.06 556.3 693.6 556.02 792.69 555.81 891.77 556.09 941.32 556.41 990.86 556.94"/>
    <polygon class="d" points="990.9 584.06 941.11 584.6 891.32 584.91 791.74 585.2 692.16 585 642.37 584.72 592.58 584.22 642.37 583.68 692.16 583.36 791.74 583.08 891.32 583.29 941.11 583.56 990.9 584.06"/>
    <polygon class="d" points="990.66 609.93 940.81 610.42 890.96 610.69 791.27 610.89 691.57 610.6 641.72 610.28 591.88 609.73 641.73 609.24 691.57 608.97 791.27 608.77 890.96 609.07 940.81 609.39 990.66 609.93"/>
    <polygon class="d" points="991.08 635.09 941.19 635.64 891.29 635.96 791.5 636.26 691.71 636.07 641.82 635.8 591.92 635.31 641.82 634.76 691.71 634.44 791.5 634.14 891.29 634.33 941.19 634.6 991.08 635.09"/>
    <polygon class="d" points="991.94 662.93 942.04 663.43 892.13 663.7 792.32 663.91 692.52 663.62 642.61 663.31 592.71 662.77 642.62 662.26 692.52 661.99 792.33 661.78 892.13 662.07 942.04 662.39 991.94 662.93"/>
    <path class="d" d="m993,687.94c-128.49,1.33-272.64,1.29-401.12-.15,128.49-1.35,272.64-1.28,401.12.15h0Z"/>
    <polygon class="d" points="994.36 713.02 944.5 713.55 894.64 713.85 794.92 714.11 695.2 713.89 645.34 713.6 595.48 713.08 645.34 712.55 695.2 712.25 794.92 711.99 894.64 712.22 944.5 712.51 994.36 713.02"/>
    <path class="d" d="m993,740.87c-127.08,1.28-269.66,1.17-396.74-.33,127.08-1.29,269.66-1.16,396.74.33h0Z"/>
    <path class="d" d="m994,766.01c-127.71,1.39-270.98,1.41-398.69.02,127.71-1.4,270.98-1.39,398.69-.02h0Z"/>
    <path class="d" d="m993,793c-127.93,1.38-271.46,1.39-399.39,0,127.93-1.39,271.46-1.38,399.39,0h0Z"/>
    <path class="d" d="m993,818.12c-128.4,1.5-272.44,1.63-400.84.35,128.4-1.51,272.44-1.62,400.84-.35h0Z"/>
    <path class="d" d="m993,844.08c-127.99,1.45-271.58,1.54-399.57.22,127.99-1.47,271.58-1.53,399.57-.22h0Z"/>
    <path class="d" d="m994,9.91c-128.7,1.39-273.1,1.41-401.8.02,128.7-1.4,273.1-1.4,401.8-.02h0Z"/>
  </g>
</svg>