<?xml version="1.0" encoding="UTF-8"?>
<svg xmlns="http://www.w3.org/2000/svg" viewBox="0 0 1286.72 945.66">
  <defs>
    <style>
      .e, .f {
        stroke-width: 3px;
      }

      .e, .f, .g, .h, .i, .j, .k, .l, .m, .n, .o, .p {
        stroke-miterlimit: 10;
      }

      .e, .f, .g, .j, .k, .l, .m, .n, .o, .p {
        fill: none;
      }

      .e, .f, .p {
        stroke: #4f328e;
      }

      .e, .k {
        stroke-dasharray: 0 0 9.25 5.55;
      }

      .q {
        fill: #fff;
      }

      .g, .m, .n, .o {
        stroke: #01283e;
      }

      .g, .o {
        stroke-width: 2.83px;
      }

      .h {
        font-size: 51.88px;
      }

      .h, .i {
        fill: #4f328e;
        font-family: SegoeUIVariable-SemiboldText, 'Segoe UI Variable';
        font-variation-settings: 'wght' 600, 'opsz' 10;
        font-weight: 600;
      }

      .h, .i, .j, .k, .l {
        stroke: #fff;
      }

      .i {
        font-size: 113.91px;
      }

      .r {
        fill: #ebeaea;
      }

      .j, .k {
        stroke-width: 5px;
      }

      .l {
        stroke-width: 8px;
      }

      .m, .n {
        stroke-width: 2.13px;
      }

      .m, .o {
        stroke-linecap: round;
      }

      .p {
        stroke-width: 6px;
      }
    </style>
  </defs>
  <g id="a" data-name="Layer 23 copy">
    <g>
      <path class="j" d="m753.48,505.87s1.85.61,4.93.77"/>
      <path class="k" d="m763.94,506.38c5.18-.72,11.77-2.99,18.56-8.88,15-13,25.48-7.84,25.48-7.84,0,0,10.89,4.51,21.95,3.53"/>
      <path class="j" d="m832.68,492.82c1.63-.29,3.25-.72,4.82-1.32"/>
    </g>
    <line class="l" x1="671" y1="458" x2="863" y2="458"/>
  </g>
  <g id="b" data-name="Layer 21">
    <text class="i" transform="translate(602 501.23)"><tspan x="0" y="0">H</tspan></text>
    <text class="h" transform="translate(679.14 447.48)"><tspan x="0" y="0">ousemate</tspan></text>
    <text class="h" transform="translate(678.14 500.48)"><tspan x="0" y="0">HQ</tspan></text>
    <line class="p" x1="671" y1="458" x2="863" y2="458"/>
  </g>
  <g id="c" data-name="Layer 22">
    <g>
      <polyline class="r" points="903.86 456.36 850.15 477.71 840.27 489.66 843.61 462.8 901.86 454.66 903.71 456.82"/>
      <polygon class="q" points="904.37 456.57 860.48 493.91 850.46 478.34 904.37 456.57"/>
      <polygon class="q" points="854.21 485.96 841.54 489.03 850.14 479.29 854.21 485.96"/>
      <polygon class="q" points="890.92 455.73 843.73 462.45 825.53 455.84 890.92 455.73"/>
      <line class="o" x1="908.81" y1="454.39" x2="860.48" y2="493.91"/>
      <line class="o" x1="820.9" y1="455.06" x2="908.81" y2="454.39"/>
      <line class="g" x1="844.56" y1="463.12" x2="820.9" y2="455.06"/>
      <line class="o" x1="850.78" y1="478.98" x2="860.48" y2="493.91"/>
      <line class="o" x1="839.63" y1="489.97" x2="843.61" y2="462.8"/>
      <line class="g" x1="855.79" y1="485.97" x2="839.63" y2="489.97"/>
      <line class="m" x1="850.15" y1="477.71" x2="840.27" y2="489.66"/>
      <line class="n" x1="908.81" y1="454.39" x2="850.15" y2="477.71"/>
      <line class="n" x1="843.61" y1="462.8" x2="908.81" y2="454.39"/>
    </g>
  </g>
  <g id="d" data-name="Layer 23">
    <g>
      <path class="f" d="m753.48,505.87s1.85.61,4.93.77"/>
      <path class="e" d="m763.94,506.38c5.18-.72,11.77-2.99,18.56-8.88,15-13,25.48-7.84,25.48-7.84,0,0,10.89,4.51,21.95,3.53"/>
      <path class="f" d="m832.68,492.82c1.63-.29,3.25-.72,4.82-1.32"/>
    </g>
  </g>
</svg>