<?xml version="1.0" encoding="UTF-8"?>
<svg id="a" data-name="Layer 12" xmlns="http://www.w3.org/2000/svg" viewBox="0 0 1286.72 945.66">
  <defs>
    <style>
      .b, .c {
        fill: #fff;
      }

      .b, .c, .d {
        stroke: #00283d;
        stroke-linecap: round;
        stroke-linejoin: round;
      }

      .b, .d {
        stroke-width: 3px;
      }

      .c {
        stroke-width: 2px;
      }

      .d {
        fill: none;
      }
    </style>
  </defs>
  <path class="d" d="m627,168s0-10,2-17,8-15,13-18c0,0,10-6,19,3s12,22,12,34"/>
  <circle class="b" cx="649.5" cy="111.5" r="9"/>
  <path class="c" d="m669.5,107.5s-1,7-4,7c0,0,4,.06,4,6.03,0,0-1-5.03,4-6.03,0,0-4-1-4-7Z"/>
  <path class="c" d="m631,89.06s-1,7-4,7c0,0,4,.06,4,6.03,0,0-1-5.03,4-6.03,0,0-4-1-4-7Z"/>
  <path class="c" d="m628,122.06s-1,7-4,7c0,0,4,.06,4,6.03,0,0-1-5.03,4-6.03,0,0-4-1-4-7Z"/>
</svg>