<?xml version="1.0" encoding="UTF-8"?>
<svg id="a" data-name="Layer 26" xmlns="http://www.w3.org/2000/svg" viewBox="0 0 1286.72 945.66">
  <defs>
    <style>
      .b {
        fill: #fff;
      }

      .c, .d, .e, .f {
        fill: none;
        stroke: #01283e;
        stroke-miterlimit: 10;
      }

      .c, .f {
        stroke-width: 2.83px;
      }

      .g {
        font-size: 113.91px;
      }

      .g, .h {
        fill: #4f328e;
        font-family: SegoeUIVariable-SemiboldText, 'Segoe UI Variable';
        font-variation-settings: 'wght' 600, 'opsz' 10;
        font-weight: 600;
      }

      .i {
        letter-spacing: -.04em;
      }

      .j {
        letter-spacing: 0em;
      }

      .k {
        fill: #ebeaea;
      }

      .d, .e {
        stroke-width: 2.13px;
      }

      .d, .f {
        stroke-linecap: round;
      }

      .h {
        font-size: 113.91px;
      }
    </style>
  </defs>
  <text class="h" transform="translate(600.07 384.04)"><tspan x="0" y="0">H</tspan></text>
  <text class="g" transform="translate(673.22 384.29)"><tspan class="i" x="0" y="0">H</tspan><tspan class="j" x="78.64" y="0">Q</tspan></text>
  <g>
    <polyline class="k" points="736.15 393.3 654.82 425.49 639.86 443.53 644.89 402.95 733.1 390.73 735.91 394.01"/>
    <polygon class="b" points="737.56 392.87 670.34 450 654.99 426.17 737.56 392.87"/>
    <polygon class="b" points="660.59 437.33 641.58 442.55 654.72 426.97 660.59 437.33"/>
    <polygon class="b" points="726.23 391.93 647.91 404.18 617.87 393.25 726.23 391.93"/>
    <line class="f" x1="741.34" y1="391.17" x2="669.66" y2="449.77"/>
    <line class="f" x1="610.97" y1="392.16" x2="741.34" y2="391.17"/>
    <line class="c" x1="646.06" y1="404.12" x2="610.97" y2="392.16"/>
    <line class="f" x1="655.28" y1="427.63" x2="669.66" y2="449.77"/>
    <line class="f" x1="638.75" y1="443.93" x2="644.66" y2="403.65"/>
    <line class="c" x1="662.71" y1="438" x2="638.75" y2="443.93"/>
    <line class="d" x1="654.35" y1="425.75" x2="639.7" y2="443.47"/>
    <line class="e" x1="741.34" y1="391.17" x2="654.35" y2="425.75"/>
    <line class="e" x1="644.66" y1="403.65" x2="741.34" y2="391.17"/>
  </g>
</svg>