<?xml version="1.0" encoding="UTF-8"?>
<svg id="a" data-name="Layer 20" xmlns="http://www.w3.org/2000/svg" xmlns:xlink="http://www.w3.org/1999/xlink" viewBox="0 0 1286.72 945.66">
  <defs>
    <style>
      .d {
        fill: url(#b);
      }

      .d, .e, .f {
        stroke-miterlimit: 10;
      }

      .d, .f {
        stroke: #01293f;
        stroke-width: 1.3px;
      }

      .g {
        fill: #00293e;
      }

      .e {
        stroke: #fff;
      }

      .e, .h {
        fill: #04293f;
      }

      .f {
        fill: url(#c);
      }
    </style>
    <linearGradient id="b" x1="697.49" y1="119.9" x2="701.01" y2="119.9" gradientTransform="translate(60.22 -140.69) rotate(10.89)" gradientUnits="userSpaceOnUse">
      <stop offset="0" stop-color="#fff"/>
      <stop offset="1" stop-color="#231f20"/>
    </linearGradient>
    <linearGradient id="c" x1="743.88" y1="114.25" x2="747.41" y2="114.25" gradientTransform="translate(-27.17 99.71) rotate(-7.23)" xlink:href="#b"/>
  </defs>
  <path class="e" d="m724.16,108.11l-.29.3c-.13-.27-.32-.51-.57-.7l-9.45-7.16c-.86-.66-2.08-.47-2.72.42l-8.96,12.42c-.64.89-.46,2.14.41,2.79l8.05,6.1-.65.68c-1.48,1.55-1.35,4.07.28,5.45l8.88,7.49,18.57-23.11-13.54-4.68Z"/>
  <path class="e" d="m756.51,99.8l-42.49,30.25c-1.87,1.33-2.33,3.96-1.03,5.87h0c1.3,1.91,3.86,2.39,5.73,1.06l42.49-30.25c1.87-1.33,2.33-3.96,1.03-5.87h0c-1.3-1.91-3.86-2.39-5.73-1.06Z"/>
  <path class="e" d="m740.15,121.9l-23.76,16.91c-1.87,1.33-2.33,3.96-1.03,5.87h0c1.3,1.91,3.86,2.39,5.73,1.06l23.76-16.91c1.87-1.33,2.33-3.96,1.03-5.87h0c-1.3-1.91-3.86-2.39-5.73-1.06Z"/>
  <path class="e" d="m745.35,128.21l-21.24,15.12c-1.87,1.33-2.33,3.96-1.03,5.87h0c1.3,1.91,3.86,2.39,5.73,1.06l21.24-15.12c1.87-1.33,2.33-3.96,1.03-5.87h0c-1.3-1.91-3.86-2.39-5.73-1.06Z"/>
  <path class="e" d="m768.65,121.64l-34.99,24.91c-1.87,1.33-2.33,3.96-1.03,5.87h0c1.3,1.91,3.86,2.39,5.73,1.06l34.99-24.91c1.87-1.33,2.33-3.96,1.03-5.87h0c-1.3-1.91-3.86-2.39-5.73-1.06Z"/>
  <path class="e" d="m765.22,123.1l-7.93-14.07c-.54-.95-.22-2.17.71-2.71l14.16-8.38c.93-.55,2.11-.22,2.65.73l7.93,14.07c.54.95.22,2.17-.71,2.71l-14.16,8.38c-.93.55-2.11.22-2.65-.73Z"/>
  <polygon class="h" points="774.4 124.17 740.7 148.16 724.92 124.88 761.73 101.83 774.4 124.17"/>
  <path class="e" d="m768.58,136.39l-7.25,5.16-3.28-4.84c-1.32-1.94-.85-4.61,1.05-5.96l.03-.02c2.09-1.49,4.97-.96,6.42,1.18l3.03,4.47Z"/>
  <path class="e" d="m761.33,141.54l-7.25,5.16-3.28-4.84c-1.32-1.94-.85-4.61,1.05-5.96l.03-.02c2.09-1.49,4.97-.96,6.42,1.18l3.03,4.47Z"/>
  <path class="e" d="m754.08,146.7l-7.25,5.16-2.65-3.91c-1.32-1.94-.85-4.61,1.05-5.96l.03-.02c2.09-1.49,4.97-.96,6.42,1.18l2.4,3.54Z"/>
  <path class="e" d="m746.84,151.86l-7.22,5.14-2.02-2.98c-1.32-1.94-.85-4.61,1.05-5.96h0c2.09-1.49,4.97-.96,6.42,1.18l1.77,2.62Z"/>
  <path class="e" d="m752.11,110.04l-5.86-10.47-.11.09h0s-22.47,8.38-22.47,8.38l4.43,11.87,15.05-8.55,2.9,5.18c1.12,2.01,3.34,2.5,4.96,1.11h0c2-1.72,2.49-5.13,1.1-7.61Z"/>
  <line class="d" x1="722.32" y1="109.76" x2="726.13" y2="108.59"/>
  <path class="g" d="m728.99,117.84l-1.89,1.22c-.74.48-1.71.25-2.18-.51l-3.55-5.77c-.46-.76-.24-1.76.5-2.23l1.89-1.22c.74-.48,1.71-.25,2.18.51l3.55,5.77c.46.76.24,1.76-.5,2.23Z"/>
  <line class="f" x1="725.29" y1="120.43" x2="728.55" y2="118.1"/>
</svg>